<?xml version="1.0" encoding="UTF-8"?>
<svg width="157.5mm" height="50.84mm" version="1.1" viewBox="0 0 220.5 71.176" xmlns="http://www.w3.org/2000/svg">
   <g transform="translate(4.1491 -105.95)">
      <g stroke-width=".26458" aria-label="cpp-sort">
         <path d="m6.7949 143.38q0 1.8852 0.29766 3.3982 0.32246 1.5131 0.76895 2.4805 0.44648 0.96739 1.1658 1.6619 0.74414 0.66972 1.3643 1.017 0.64492 0.34727 1.5379 0.5457 0.89297 0.17364 1.4139 0.22325 0.5457 0.0248 1.3146 0.0248h0.32246q2.7037 0 4.316-0.96738 1.6123-0.99219 2.7037-2.8029l3.1254 2.2572q-0.04961 0.0496-0.44648 0.62012-0.37207 0.5457-0.71934 0.91777-0.32246 0.37207-0.94258 1.017-0.62012 0.64492-1.3643 1.0914-0.71934 0.42168-1.6867 0.86817-0.94258 0.42168-2.2076 0.66972-1.265 0.22325-2.6789 0.22325-2.4557 0-4.44-0.39688-1.9596-0.39687-3.5719-1.5875-2.3068-1.7859-3.2742-4.5393-0.94258-2.7781-0.94258-6.7221 0-3.3734 0.79375-5.7299 0.79375-2.3812 2.4061-3.7703 1.6123-1.4139 3.7951-2.034 2.2076-0.64492 5.2338-0.64492 3.423 0 5.6803 1.7363 1.7115 1.3146 2.8277 3.9439l-3.8199 1.4883q-0.12402-0.44649-0.24805-0.74414-0.09922-0.32247-0.47129-0.86817-0.37207-0.5457-0.86816-0.86816-0.47129-0.34727-1.3643-0.62012t-2.0092-0.27285q-4.1424 0-6.0771 1.9844-1.9348 1.9844-1.9348 6.3996z" fill="#e66585" />
         <path d="m46.309 143.38q0-4.0432-1.265-6.1268-1.265-2.0836-4.2912-2.0836-1.6867 0-2.8029 0.44649-1.1162 0.42168-1.8604 1.2154-0.71934 0.76894-1.6867 2.3068v10.815q1.5627 1.5131 2.2572 1.9844 1.2898 0.84336 2.7037 0.84336 6.9453 0 6.9453-9.401zm-15.776-5.2586v-0.59531q0-2.7285-0.47129-5.8291l4.068-0.4961q0.24805 1.6371 0.27285 2.3812 2.5301-2.2572 6.3252-2.2572 4.8617 0 7.1686 3.1502 2.3068 3.1254 2.3068 8.4336 0 13.717-11.187 13.717-0.44648 0-0.86816-0.0496-0.42168-0.0248-0.71934-0.0744t-0.66973-0.17363q-0.34727-0.12402-0.5209-0.17363-0.17363-0.0744-0.5209-0.24805-0.32246-0.19844-0.44648-0.24805-0.09922-0.0744-0.44648-0.29765-0.34727-0.24805-0.42168-0.29766v5.1346q0 2.2572 0.39688 6.102l-3.9439 0.22325q-0.34726-2.8277-0.34726-6.4492z" fill="#e38a68" />
         <path d="m72.602 143.38q0-4.0432-1.265-6.1268-1.265-2.0836-4.2912-2.0836-1.6867 0-2.8029 0.44649-1.1162 0.42168-1.8604 1.2154-0.71934 0.76894-1.6867 2.3068v10.815q1.5627 1.5131 2.2572 1.9844 1.2898 0.84336 2.7037 0.84336 6.9453 0 6.9453-9.401zm-15.776-5.2586v-0.59531q0-2.7285-0.47129-5.8291l4.068-0.4961q0.24805 1.6371 0.27285 2.3812 2.5301-2.2572 6.3252-2.2572 4.8617 0 7.1686 3.1502 2.3068 3.1254 2.3068 8.4336 0 13.717-11.187 13.717-0.44648 0-0.86816-0.0496-0.42168-0.0248-0.71934-0.0744t-0.66973-0.17363q-0.34726-0.12402-0.5209-0.17363-0.17363-0.0744-0.5209-0.24805-0.32246-0.19844-0.44648-0.24805-0.09922-0.0744-0.44648-0.29765-0.34727-0.24805-0.42168-0.29766v5.1346q0 2.2572 0.39688 6.102l-3.9439 0.22325q-0.34727-2.8277-0.34727-6.4492z" fill="#e5b25c" />
         <path d="m83.739 141.57h19.521v3.8695h-19.521z" fill="#e6cb56" />
         <path d="m112.91 142.34q-2.8773-1.5379-2.8773-5.3082 0.0248-3.0262 2.4309-4.5641 2.406-1.5379 5.9531-1.5379 2.6045 0 5.3082 0.89297 2.7037 0.86816 4.1176 2.6045l-2.8029 2.7533q-0.96738-1.1162-2.8029-1.8356-1.8107-0.74414-3.4726-0.74414-2.1084 0-3.4727 0.59532-1.3643 0.59531-1.3643 1.7363 0 0.86817 0.34727 1.3643 0.37207 0.4961 1.141 0.84336 1.0666 0.44649 2.4805 0.96738 1.4139 0.4961 2.4061 0.84336 1.017 0.34727 2.1828 0.84336 1.1906 0.47129 1.9844 0.94258 0.81856 0.44649 1.6371 1.1162 0.81856 0.66973 1.2898 1.4387 0.49609 0.76895 0.79375 1.8356 0.29765 1.0666 0.29765 2.3564 0 2.8029-1.6123 4.5889-1.6123 1.7859-3.8695 2.3812-2.1332 0.4961-4.2912 0.4961-4.6633 0-7.0941-2.282-2.4309-2.3068-2.4309-6.3996l3.8943 0.0248q0 5.1098 5.5562 5.1098 2.4805 0 4.2416-1.0418 1.7611-1.0666 1.7611-3.0014 0-1.0914-0.4961-1.7611-0.49609-0.69453-1.6371-1.5627-1.017-0.74414-4.7377-1.91-3.6959-1.1658-4.8617-1.7859z" fill="#9bdb56" />
         <path d="m148.78 151.12q2.2076-2.0836 2.2076-7.8135 0 0 0-0.44649-0.0496-3.7207-1.4883-5.9531-1.4387-2.2324-4.5392-2.2324-1.8852 0-3.2246 0.71933-1.3146 0.71934-2.0588 2.1084t-1.0914 3.175q-0.32246 1.7611-0.32246 4.1424 0 3.6711 1.6123 5.7299 1.6123 2.034 4.6881 2.034 1.4139-0.0248 2.3316-0.34726 0.94258-0.32246 1.8852-1.1162zm-4.2664 5.3082q-4.9609-0.0248-7.5654-3.0758-2.6045-3.0758-2.6045-8.4088 0-2.2572 0.29766-4.2416 0.32246-2.0092 1.0418-3.8199 0.74414-1.8355 1.8356-3.1502 1.1162-1.3146 2.8029-2.0836 1.6867-0.79375 3.7951-0.79375 3.5719 0 5.7795 1.2402 2.2324 1.2154 3.5719 3.7455 1.4635 2.8277 1.4635 7.1438 0 2.2324-0.32246 4.1424-0.29766 1.8852-1.0418 3.6463-0.74414 1.7363-1.91 2.9766-1.141 1.2154-2.9518 1.9596-1.8107 0.71934-4.1424 0.71934z" fill="#56db87" />
         <path d="m168.03 134.75q1.6867-2.0588 3.7207-2.8773 2.034-0.84336 5.0106-0.84336 2.9518 0 4.0928 1.8604 1.1658 1.8356 1.1658 5.4818v0.14882h-3.8695q0-0.24804-0.0248-0.79375-0.0248-0.5705-0.0496-0.79375 0-0.22324-0.0744-0.62011-0.0496-0.42168-0.19844-0.57051-0.12402-0.17363-0.34726-0.37207-0.22325-0.22324-0.57051-0.29766-0.34727-0.0744-0.81856-0.0744-1.0666 0-2.0092 0.24805-0.94257 0.24804-2.0588 0.89296-1.0914 0.62012-2.1332 1.9596-1.0418 1.3395-1.9348 3.3238v15.032l-3.8695-0.0248v-18.926q0-0.22324-0.0248-0.42168-0.0248-0.22324-0.12402-0.42168-0.0992-0.22324-0.17363-0.37207-0.0496-0.17363-0.24805-0.37207-0.17363-0.22324-0.27285-0.34726-0.0744-0.12403-0.34727-0.37207-0.27285-0.24805-0.39687-0.34727-0.12403-0.12402-0.47129-0.42168-0.32246-0.29766-0.47129-0.42168l2.5797-3.4975q0.17363 0.14883 0.71933 0.59531 0.57051 0.42168 0.79375 0.59532 0.22324 0.17363 0.64492 0.59531 0.44649 0.39687 0.69453 0.71933 0.24805 0.29766 0.54571 0.76895 0.29765 0.47129 0.5209 0.96738z" fill="#56dbc8" />
         <path d="m194.05 145.61v0.99219q0 5.7051 3.6463 6.0772 0.66973 0.0744 2.6789 0.0744 2.7533 0 3.8199-0.59531 1.3394-0.71933 2.034-2.5797l3.1254 1.3891q0 0.0248-0.0992 0.29765-0.0744 0.24805-0.14883 0.39688-0.0496 0.12402-0.17363 0.44648-0.12403 0.29766-0.27286 0.5209-0.12402 0.22324-0.34726 0.57051-0.19844 0.32246-0.44649 0.59531-0.24804 0.27285-0.5705 0.59531-0.29766 0.29766-0.69454 0.59532-0.39687 0.29765-0.84335 0.5457-1.8108 1.0666-5.333 1.0666-1.5131 0-2.5797-0.0744-1.0418-0.0744-2.158-0.32246-1.1162-0.24805-1.91-0.69454-0.76894-0.44648-1.4883-1.1906-0.69453-0.76895-1.2154-1.8604-0.96738-1.9844-0.96738-5.7795v-1.0666q0.0496-1.3394 0.12402-4.8369 0.0992-3.4975 0.17363-5.7795h-0.34726q-1.017 0-2.034 0.27285l-0.49609-3.6215q0.79375-0.29766 2.5301-0.29766h0.37207q0-0.86816 0-2.9022 0.0248-2.034 0.0248-2.9022l3.9191 0.0248q0 2.282-0.0496 5.6555h3.0262l7.4166-0.0496h0.44648v3.6463h-7.8631q-0.57051 0-1.4883 0.0496-0.89297 0.0248-1.4635 0.0248-0.12402 2.927-0.22324 6.474-0.0992 3.5223-0.12403 4.2416z" fill="#4dbfe6" />
      </g>
      <circle cx="14.011" cy="162.75" r="2.2296" fill="#e66585" stroke-width=".183" />
      <circle cx="40.341" cy="125.37" r="2.2296" fill="#56db87" stroke-width=".183" />
      <circle cx="66.54" cy="162.75" r="2.2296" fill="#e5b25c" stroke-width=".183" />
      <circle cx="119.07" cy="162.75" r="2.2296" fill="#e38a68" stroke-width=".183" />
      <circle cx="145.33" cy="162.75" r="2.2296" fill="#56dbc8" stroke-width=".183" />
      <circle cx="171.66" cy="125.37" r="2.2296" fill="#9bdb56" stroke-width=".183" />
      <circle cx="197.86" cy="162.75" r="2.2296" fill="#4dbfe6" stroke-width=".183" />
      <path d="m40.339 164.29c0 1.7638 0 3.5274 13.135 4.409 13.135 0.88164 39.404 0.88164 52.539-2e-5 13.135-0.88166 13.135-2.6452 13.135-4.409" fill="none" stroke="#e38a68" stroke-width="1.5013" />
      <path d="m145.19 164.29c0 1.7661 0 3.532 4.4043 4.4148s13.212 0.8828 17.616-2e-5c4.4039-0.88282 4.4039-2.6487 4.4039-4.4148" fill="none" stroke="#56dbc8" stroke-width="1.4999" />
      <path d="m40.215 124.04c0-1.7636 0-3.5275 17.552-4.4096s52.653-0.88208 70.204 1e-5c17.551 0.8821 17.551 2.646 17.551 4.4096" fill="none" stroke="#56db87" stroke-width="1.4963" />
      <path d="m119.06 120.07c0-2.2046 0-4.4095 8.7691-5.512 8.7691-1.1026 26.306-1.1026 35.075-0.22047 8.7687 0.88209 8.7687 2.646 8.7687 4.4096" fill="none" stroke="#9bdb56" stroke-width="1.4957" />
      <path d="m171.68 124.04v-5.2917" fill="none" stroke="#9bdb56" stroke-width="1.5" />
      <path d="m119.06 124.04v-5.2917" fill="none" stroke="#9bdb56" stroke-width="1.5" />
   </g>
</svg>
